<?xml version="1.0" encoding="UTF-8" standalone="no"?>
<!-- Created with Inkscape (http://www.inkscape.org/) -->

<svg
   width="68.13163mm"
   height="68.13163mm"
   viewBox="0 0 68.13163 68.13163"
   version="1.1"
   id="svg5"
   xml:space="preserve"
   xmlns="http://www.w3.org/2000/svg"
   xmlns:svg="http://www.w3.org/2000/svg"><defs
     id="defs2" /><g
     id="layer1"
     transform="translate(-41.794886,-42.251349)"><path
       id="rect320"
       style="fill:#000000;fill-opacity:1;stroke:none;stroke-width:2;stroke-linecap:round;stroke-dasharray:none"
       d="m 64.437681,61.781468 -1.129227,4.231394 4.232063,1.129407 1.129228,-4.231395 z m 3.102836,5.360801 -1.129406,4.232063 -4.232064,-1.129405 -1.129229,4.231393 -4.231393,-1.129227 c 0.752879,-2.821153 1.505757,-5.642307 2.258634,-8.463459 l -4.232064,-1.129406 c -1.505756,5.642305 -3.011512,11.284611 -4.517268,16.926918 l 4.232065,1.129405 -1.129407,4.232064 4.231394,1.129228 -1.129229,4.231395 4.232066,1.129407 1.129227,-4.231395 c 7.05277,1.882163 14.105543,3.764331 21.158312,5.646494 l -1.129229,4.231395 4.231395,1.129228 1.129227,-4.231396 4.232065,1.129408 1.129406,-4.232063 4.231396,1.129225 c 1.505754,-5.642304 3.011501,-11.284609 4.517265,-16.926916 l -4.231393,-1.129227 c -0.752878,2.821152 -1.505756,5.642304 -2.258634,8.463458 L 90.671589,82.381449 91.800816,78.150054 87.569423,77.020827 88.69883,72.788762 84.467435,71.659537 83.338028,75.8916 C 79.106187,74.762253 74.874347,73.632908 70.642506,72.503561 l 1.129407,-4.232065 z m 21.158313,5.646493 4.231393,1.129227 1.129227,-4.231392 -4.231393,-1.129227 z m -23.416947,2.816965 4.231395,1.129228 -1.129406,4.232065 -4.231395,-1.129229 z m 16.926917,4.517268 4.231396,1.129227 -1.129407,4.232065 -4.231395,-1.129227 z m -29.912655,10.169798 -1.129405,4.232064 4.231392,1.129226 1.129407,-4.232064 z m 33.853163,9.034356 -1.129405,4.232061 4.232064,1.12941 1.129407,-4.23206 z" /><rect
       style="fill:none;fill-opacity:1;stroke:#000000;stroke-width:2.7;stroke-linecap:round;stroke-dasharray:none"
       id="rect1293"
       width="65.431633"
       height="65.431633"
       x="43.144886"
       y="43.601349"
       ry="3.6456831"
       rx="3.6456831" /><g
       id="g8398"><path
         style="fill:none;stroke:#000000;stroke-width:2.7;stroke-linecap:round;stroke-linejoin:miter;stroke-dasharray:none;stroke-opacity:1"
         d="m 98.304941,53.284646 5.458549,-5.458547"
         id="path1781" /><path
         style="fill:none;stroke:#000000;stroke-width:2.7;stroke-linecap:round;stroke-linejoin:miter;stroke-dasharray:none;stroke-opacity:1"
         d="m 98.304941,47.826099 5.458549,5.458547"
         id="path1783" /></g><path
       style="fill:none;stroke:#000000;stroke-width:2.7;stroke-linecap:butt;stroke-linejoin:miter;stroke-dasharray:none;stroke-opacity:1"
       d="M 108.57652,57.401289 H 43.144887"
       id="path2578" /></g></svg>
